<svg xmlns="http://www.w3.org/2000/svg" version="1.1" xmlns:xlink="http://www.w3.org/1999/xlink" xmlns:svgjs="http://svgjs.dev/svgjs" width="1440" height="560" preserveAspectRatio="none" viewBox="0 0 1440 560"><g mask="url(&quot;#SvgjsMask1009&quot;)" fill="none"><rect width="1440" height="560" x="0" y="0" fill="rgba(94, 97, 105, 1)"></rect><path d="M1464 560L0 560 L0 341.24Q69.28 290.52, 120 359.8Q162.89 282.69, 240 325.59Q323.22 288.81, 360 372.03Q367.45 307.48, 432 314.92Q461.93 272.85, 504 302.78Q532.1 258.88, 576 286.98Q626.04 265.02, 648 315.07Q701.75 296.82, 720 350.58Q764.4 322.98, 792 367.38Q817.88 273.26, 912 299.14Q965.3 232.44, 1032 285.73Q1128.56 262.28, 1152 358.84Q1184.68 271.52, 1272 304.21Q1316.74 276.95, 1344 321.7Q1411.92 269.62, 1464 337.54z" fill="rgba(104, 133, 193, 1)"></path><path d="M1488 560L0 560 L0 417.13Q5.12 350.25, 72 355.36Q137.4 300.76, 192 366.17Q268.44 322.61, 312 399.05Q384.02 351.07, 432 423.09Q463.53 334.62, 552 366.15Q582.92 325.07, 624 356Q698.49 310.49, 744 384.97Q830.99 351.96, 864 438.94Q879.91 382.85, 936 398.75Q948.24 338.99, 1008 351.22Q1080.72 303.95, 1128 376.67Q1193.45 322.13, 1248 387.58Q1320.76 340.34, 1368 413.1Q1399.03 324.13, 1488 355.17z" fill="rgba(169, 190, 227, 1)"></path><path d="M1488 560L0 560 L0 505.85Q11.53 445.38, 72 456.91Q142.9 407.81, 192 478.71Q260.58 427.29, 312 495.88Q341.84 405.72, 432 435.55Q501.01 384.56, 552 453.58Q635.7 417.28, 672 500.99Q702.84 411.83, 792 442.66Q869.15 399.82, 912 476.97Q967.44 460.41, 984 515.85Q1015 426.85, 1104 457.85Q1178.48 412.33, 1224 486.81Q1253.64 444.45, 1296 474.09Q1317.71 423.8, 1368 445.52Q1419.92 377.44, 1488 429.36z" fill="rgba(220, 235, 254, 1)"></path><path d="M1512 560L0 560 L0 550.93Q43.38 474.31, 120 517.69Q173.84 451.53, 240 505.37Q325.37 470.74, 360 556.11Q380.46 504.57, 432 525.03Q519.99 493.02, 552 581.01Q571.26 528.27, 624 547.53Q667.9 519.43, 696 563.33Q763.23 510.56, 816 577.78Q821.15 510.93, 888 516.08Q916.58 472.66, 960 501.24Q1046.7 467.94, 1080 554.64Q1132.16 534.81, 1152 586.97Q1165.16 480.13, 1272 493.29Q1341.27 442.56, 1392 511.83Q1480.72 480.55, 1512 569.27z" fill="rgba(230, 254, 252, 1)"></path></g><defs><mask id="SvgjsMask1009"><rect width="1440" height="560" fill="#ffffff"></rect></mask></defs></svg>